<?xml version="1.0" standalone="no"?>
<!DOCTYPE svg PUBLIC "-//W3C//DTD SVG 20010904//EN"
 "http://www.w3.org/TR/2001/REC-SVG-20010904/DTD/svg10.dtd">
<svg version="1.0" xmlns="http://www.w3.org/2000/svg"
 width="142.000000pt" height="142.000000pt" viewBox="0 0 142.000000 142.000000"
 preserveAspectRatio="xMidYMid meet">
<metadata>
Created by potrace 1.11, written by Peter Selinger 2001-2013
</metadata>
<g transform="translate(0.000000,142.000000) scale(0.100000,-0.100000)"
fill="#000000" stroke="none">
<path d="M499 1348 c-29 -40 -69 -95 -90 -123 -20 -27 -112 -153 -203 -280
-159 -218 -167 -231 -161 -265 4 -19 10 -39 13 -45 4 -5 7 -12 7 -15 4 -28
110 -338 118 -346 20 -19 827 -275 841 -267 7 5 91 65 187 135 l174 127 0 442
0 442 -25 16 c-13 9 -97 69 -186 134 l-162 117 -230 0 -230 0 -53 -72z m295
-370 c-38 -65 -348 -497 -360 -502 -9 -3 -34 -6 -56 -6 -29 0 -39 4 -35 13 8
20 339 491 351 499 6 4 33 8 59 8 36 0 46 -3 41 -12z m353 -245 l-2 -258 -42
-2 c-42 -2 -43 -1 -44 30 0 18 -1 114 -1 215 0 132 -4 182 -12 182 -7 0 -79
-97 -161 -215 l-150 -215 -52 0 c-29 0 -53 2 -53 5 0 10 333 481 352 498 15
13 38 17 94 17 l74 0 -3 -257z"/>
</g>
</svg>
